# xmcd
#
# Track frame offsets:
#	150
#	14480
#	29650
#
# Disc length: 683 seconds
#
# Revision: 2
# Processed by: cddbd v1.5.2PL0 Copyright (c) Steve Scherf et al.
# Submitted via: EasyCDDAExtractor 10.0.3.1
#
DISCID=2002a903
DTITLE=TANTRIC - SINGLE
DYEAR=2001
DGENRE=Country
TTITLE0=Breakdown
TTITLE1=Cliche
TTITLE2=Foresight
EXTD=YEAR: 2001 ID3G: 2
EXTT0=
EXTT1=
EXTT2=
PLAYORDER=
